<svg aria-roledescription="er" role="graphics-document document" viewBox="0 0 665.7313232421875 461" style="max-width: 665.731px; background-color: white;" xmlns:xlink="http://www.w3.org/1999/xlink" xmlns="http://www.w3.org/2000/svg" width="100%" id="my-svg"><style>#my-svg{font-family:"trebuchet ms",verdana,arial,sans-serif;font-size:16px;fill:#333;}#my-svg .error-icon{fill:#552222;}#my-svg .error-text{fill:#552222;stroke:#552222;}#my-svg .edge-thickness-normal{stroke-width:2px;}#my-svg .edge-thickness-thick{stroke-width:3.5px;}#my-svg .edge-pattern-solid{stroke-dasharray:0;}#my-svg .edge-pattern-dashed{stroke-dasharray:3;}#my-svg .edge-pattern-dotted{stroke-dasharray:2;}#my-svg .marker{fill:#333333;stroke:#333333;}#my-svg .marker.cross{stroke:#333333;}#my-svg svg{font-family:"trebuchet ms",verdana,arial,sans-serif;font-size:16px;}#my-svg .entityBox{fill:#ECECFF;stroke:#9370DB;}#my-svg .attributeBoxOdd{fill:#ffffff;stroke:#9370DB;}#my-svg .attributeBoxEven{fill:#f2f2f2;stroke:#9370DB;}#my-svg .relationshipLabelBox{fill:hsl(80, 100%, 96.2745098039%);opacity:0.7;background-color:hsl(80, 100%, 96.2745098039%);}#my-svg .relationshipLabelBox rect{opacity:0.5;}#my-svg .relationshipLine{stroke:#333333;}#my-svg .entityTitleText{text-anchor:middle;font-size:18px;fill:#333;}#my-svg #MD_PARENT_START{fill:#f5f5f5!important;stroke:#333333!important;stroke-width:1;}#my-svg #MD_PARENT_END{fill:#f5f5f5!important;stroke:#333333!important;stroke-width:1;}#my-svg :root{--mermaid-font-family:"trebuchet ms",verdana,arial,sans-serif;}</style><g/><defs><marker orient="auto" markerHeight="240" markerWidth="190" refY="7" refX="0" id="MD_PARENT_START"><path d="M 18,7 L9,13 L1,7 L9,1 Z"/></marker></defs><defs><marker orient="auto" markerHeight="28" markerWidth="20" refY="7" refX="19" id="MD_PARENT_END"><path d="M 18,7 L9,13 L1,7 L9,1 Z"/></marker></defs><defs><marker orient="auto" markerHeight="18" markerWidth="18" refY="9" refX="0" id="ONLY_ONE_START"><path d="M9,0 L9,18 M15,0 L15,18" fill="none" stroke="gray"/></marker></defs><defs><marker orient="auto" markerHeight="18" markerWidth="18" refY="9" refX="18" id="ONLY_ONE_END"><path d="M3,0 L3,18 M9,0 L9,18" fill="none" stroke="gray"/></marker></defs><defs><marker orient="auto" markerHeight="18" markerWidth="30" refY="9" refX="0" id="ZERO_OR_ONE_START"><circle r="6" cy="9" cx="21" fill="white" stroke="gray"/><path d="M9,0 L9,18" fill="none" stroke="gray"/></marker></defs><defs><marker orient="auto" markerHeight="18" markerWidth="30" refY="9" refX="30" id="ZERO_OR_ONE_END"><circle r="6" cy="9" cx="9" fill="white" stroke="gray"/><path d="M21,0 L21,18" fill="none" stroke="gray"/></marker></defs><defs><marker orient="auto" markerHeight="36" markerWidth="45" refY="18" refX="18" id="ONE_OR_MORE_START"><path d="M0,18 Q 18,0 36,18 Q 18,36 0,18 M42,9 L42,27" fill="none" stroke="gray"/></marker></defs><defs><marker orient="auto" markerHeight="36" markerWidth="45" refY="18" refX="27" id="ONE_OR_MORE_END"><path d="M3,9 L3,27 M9,18 Q27,0 45,18 Q27,36 9,18" fill="none" stroke="gray"/></marker></defs><defs><marker orient="auto" markerHeight="36" markerWidth="57" refY="18" refX="18" id="ZERO_OR_MORE_START"><circle r="6" cy="18" cx="48" fill="white" stroke="gray"/><path d="M0,18 Q18,0 36,18 Q18,36 0,18" fill="none" stroke="gray"/></marker></defs><defs><marker orient="auto" markerHeight="36" markerWidth="57" refY="18" refX="39" id="ZERO_OR_MORE_END"><circle r="6" cy="18" cx="9" fill="white" stroke="gray"/><path d="M21,18 Q39,0 57,18 Q39,36 21,18" fill="none" stroke="gray"/></marker></defs><path style="stroke: gray; fill: none;" marker-start="url(#ONLY_ONE_START)" marker-end="url(#ZERO_OR_MORE_END)" d="M198.17575442043176,191L187.01752397788258,199.33333333333334C175.85929353533342,207.66666666666666,153.54283265023506,224.33333333333334,142.3846022076859,244.5C131.22637176513672,264.6666666666667,131.22637176513672,288.3333333333333,131.22637176513672,300.1666666666667L131.22637176513672,312" class="er relationshipLine"/><path style="stroke: gray; fill: none;" marker-start="url(#ONLY_ONE_START)" marker-end="url(#ZERO_OR_MORE_END)" d="M427.1426431015409,191L438.30087354409005,199.33333333333334C449.45910398663926,207.66666666666666,471.7755648717376,224.33333333333334,482.9337953142867,241C494.09202575683594,257.6666666666667,494.09202575683594,274.3333333333333,494.09202575683594,282.6666666666667L494.09202575683594,291" class="er relationshipLine"/><g transform="translate(159.14337539672852,20 )" id="entity-JAMMER-534f5297-c3e7-5e9c-8af6-c5b1a8365bd7"><rect height="171" width="307.0316467285156" y="0" x="0" class="er entityBox"/><text style="dominant-baseline: middle; text-anchor: middle; font-size: 12px;" transform="translate(153.5158233642578,12)" y="0" x="0" id="text-entity-JAMMER-534f5297-c3e7-5e9c-8af6-c5b1a8365bd7" class="er entityLabel">JAMMER</text><rect height="21" width="59.0625" y="24" x="0" class="er attributeBoxOdd"/><text style="dominant-baseline: middle; font-size: 10.2px;" transform="translate(5,34.5)" y="0" x="0" id="text-entity-JAMMER-534f5297-c3e7-5e9c-8af6-c5b1a8365bd7-attr-1-type" class="er entityLabel">INTEGER</text><rect height="21" width="87.015625" y="24" x="59.0625" class="er attributeBoxOdd"/><text style="dominant-baseline: middle; font-size: 10.2px;" transform="translate(64.0625,34.5)" y="0" x="0" id="text-entity-JAMMER-534f5297-c3e7-5e9c-8af6-c5b1a8365bd7-attr-1-name" class="er entityLabel">jammer_id</text><rect height="21" width="24.357086181640625" y="24" x="146.078125" class="er attributeBoxOdd"/><text style="dominant-baseline: middle; font-size: 10.2px;" transform="translate(151.078125,34.5)" y="0" x="0" id="text-entity-JAMMER-534f5297-c3e7-5e9c-8af6-c5b1a8365bd7-attr-1-key" class="er entityLabel">PK</text><rect height="21" width="136.596435546875" y="24" x="170.43521118164062" class="er attributeBoxOdd"/><text style="dominant-baseline: middle; font-size: 10.2px;" transform="translate(175.43521118164062,34.5)" y="0" x="0" id="text-entity-JAMMER-534f5297-c3e7-5e9c-8af6-c5b1a8365bd7-attr-1-comment" class="er entityLabel">IDENTITY</text><rect height="21" width="59.0625" y="45" x="0" class="er attributeBoxEven"/><text style="dominant-baseline: middle; font-size: 10.2px;" transform="translate(5,55.5)" y="0" x="0" id="text-entity-JAMMER-534f5297-c3e7-5e9c-8af6-c5b1a8365bd7-attr-2-type" class="er entityLabel">VARCHAR</text><rect height="21" width="87.015625" y="45" x="59.0625" class="er attributeBoxEven"/><text style="dominant-baseline: middle; font-size: 10.2px;" transform="translate(64.0625,55.5)" y="0" x="0" id="text-entity-JAMMER-534f5297-c3e7-5e9c-8af6-c5b1a8365bd7-attr-2-name" class="er entityLabel">email</text><rect height="21" width="24.357086181640625" y="45" x="146.078125" class="er attributeBoxEven"/><text style="dominant-baseline: middle; font-size: 10.2px;" transform="translate(151.078125,55.5)" y="0" x="0" id="text-entity-JAMMER-534f5297-c3e7-5e9c-8af6-c5b1a8365bd7-attr-2-key" class="er entityLabel">UK</text><rect height="21" width="136.596435546875" y="45" x="170.43521118164062" class="er attributeBoxEven"/><text style="dominant-baseline: middle; font-size: 10.2px;" transform="translate(175.43521118164062,55.5)" y="0" x="0" id="text-entity-JAMMER-534f5297-c3e7-5e9c-8af6-c5b1a8365bd7-attr-2-comment" class="er entityLabel">NOT NULL</text><rect height="21" width="59.0625" y="66" x="0" class="er attributeBoxOdd"/><text style="dominant-baseline: middle; font-size: 10.2px;" transform="translate(5,76.5)" y="0" x="0" id="text-entity-JAMMER-534f5297-c3e7-5e9c-8af6-c5b1a8365bd7-attr-3-type" class="er entityLabel">VARCHAR</text><rect height="21" width="87.015625" y="66" x="59.0625" class="er attributeBoxOdd"/><text style="dominant-baseline: middle; font-size: 10.2px;" transform="translate(64.0625,76.5)" y="0" x="0" id="text-entity-JAMMER-534f5297-c3e7-5e9c-8af6-c5b1a8365bd7-attr-3-name" class="er entityLabel">jammer_pw</text><rect height="21" width="24.357086181640625" y="66" x="146.078125" class="er attributeBoxOdd"/><text style="dominant-baseline: middle; font-size: 10.2px;" transform="translate(151.078125,76.5)" y="0" x="0" id="text-entity-JAMMER-534f5297-c3e7-5e9c-8af6-c5b1a8365bd7-attr-3-key" class="er entityLabel"/><rect height="21" width="136.596435546875" y="66" x="170.43521118164062" class="er attributeBoxOdd"/><text style="dominant-baseline: middle; font-size: 10.2px;" transform="translate(175.43521118164062,76.5)" y="0" x="0" id="text-entity-JAMMER-534f5297-c3e7-5e9c-8af6-c5b1a8365bd7-attr-3-comment" class="er entityLabel">NOT NULL</text><rect height="21" width="59.0625" y="87" x="0" class="er attributeBoxEven"/><text style="dominant-baseline: middle; font-size: 10.2px;" transform="translate(5,97.5)" y="0" x="0" id="text-entity-JAMMER-534f5297-c3e7-5e9c-8af6-c5b1a8365bd7-attr-4-type" class="er entityLabel">VARCHAR</text><rect height="21" width="87.015625" y="87" x="59.0625" class="er attributeBoxEven"/><text style="dominant-baseline: middle; font-size: 10.2px;" transform="translate(64.0625,97.5)" y="0" x="0" id="text-entity-JAMMER-534f5297-c3e7-5e9c-8af6-c5b1a8365bd7-attr-4-name" class="er entityLabel">username</text><rect height="21" width="24.357086181640625" y="87" x="146.078125" class="er attributeBoxEven"/><text style="dominant-baseline: middle; font-size: 10.2px;" transform="translate(151.078125,97.5)" y="0" x="0" id="text-entity-JAMMER-534f5297-c3e7-5e9c-8af6-c5b1a8365bd7-attr-4-key" class="er entityLabel"/><rect height="21" width="136.596435546875" y="87" x="170.43521118164062" class="er attributeBoxEven"/><text style="dominant-baseline: middle; font-size: 10.2px;" transform="translate(175.43521118164062,97.5)" y="0" x="0" id="text-entity-JAMMER-534f5297-c3e7-5e9c-8af6-c5b1a8365bd7-attr-4-comment" class="er entityLabel">NOT NULL</text><rect height="21" width="59.0625" y="108" x="0" class="er attributeBoxOdd"/><text style="dominant-baseline: middle; font-size: 10.2px;" transform="translate(5,118.5)" y="0" x="0" id="text-entity-JAMMER-534f5297-c3e7-5e9c-8af6-c5b1a8365bd7-attr-5-type" class="er entityLabel">INTEGER</text><rect height="21" width="87.015625" y="108" x="59.0625" class="er attributeBoxOdd"/><text style="dominant-baseline: middle; font-size: 10.2px;" transform="translate(64.0625,118.5)" y="0" x="0" id="text-entity-JAMMER-534f5297-c3e7-5e9c-8af6-c5b1a8365bd7-attr-5-name" class="er entityLabel">work_time_secs</text><rect height="21" width="24.357086181640625" y="108" x="146.078125" class="er attributeBoxOdd"/><text style="dominant-baseline: middle; font-size: 10.2px;" transform="translate(151.078125,118.5)" y="0" x="0" id="text-entity-JAMMER-534f5297-c3e7-5e9c-8af6-c5b1a8365bd7-attr-5-key" class="er entityLabel"/><rect height="21" width="136.596435546875" y="108" x="170.43521118164062" class="er attributeBoxOdd"/><text style="dominant-baseline: middle; font-size: 10.2px;" transform="translate(175.43521118164062,118.5)" y="0" x="0" id="text-entity-JAMMER-534f5297-c3e7-5e9c-8af6-c5b1a8365bd7-attr-5-comment" class="er entityLabel">NOT NULL; DEFAULT 3000</text><rect height="21" width="59.0625" y="129" x="0" class="er attributeBoxEven"/><text style="dominant-baseline: middle; font-size: 10.2px;" transform="translate(5,139.5)" y="0" x="0" id="text-entity-JAMMER-534f5297-c3e7-5e9c-8af6-c5b1a8365bd7-attr-6-type" class="er entityLabel">INTEGER</text><rect height="21" width="87.015625" y="129" x="59.0625" class="er attributeBoxEven"/><text style="dominant-baseline: middle; font-size: 10.2px;" transform="translate(64.0625,139.5)" y="0" x="0" id="text-entity-JAMMER-534f5297-c3e7-5e9c-8af6-c5b1a8365bd7-attr-6-name" class="er entityLabel">break_time_secs</text><rect height="21" width="24.357086181640625" y="129" x="146.078125" class="er attributeBoxEven"/><text style="dominant-baseline: middle; font-size: 10.2px;" transform="translate(151.078125,139.5)" y="0" x="0" id="text-entity-JAMMER-534f5297-c3e7-5e9c-8af6-c5b1a8365bd7-attr-6-key" class="er entityLabel"/><rect height="21" width="136.596435546875" y="129" x="170.43521118164062" class="er attributeBoxEven"/><text style="dominant-baseline: middle; font-size: 10.2px;" transform="translate(175.43521118164062,139.5)" y="0" x="0" id="text-entity-JAMMER-534f5297-c3e7-5e9c-8af6-c5b1a8365bd7-attr-6-comment" class="er entityLabel">NOT NULL; DEFAULT 600</text><rect height="21" width="59.0625" y="150" x="0" class="er attributeBoxOdd"/><text style="dominant-baseline: middle; font-size: 10.2px;" transform="translate(5,160.5)" y="0" x="0" id="text-entity-JAMMER-534f5297-c3e7-5e9c-8af6-c5b1a8365bd7-attr-7-type" class="er entityLabel">INTEGER</text><rect height="21" width="87.015625" y="150" x="59.0625" class="er attributeBoxOdd"/><text style="dominant-baseline: middle; font-size: 10.2px;" transform="translate(64.0625,160.5)" y="0" x="0" id="text-entity-JAMMER-534f5297-c3e7-5e9c-8af6-c5b1a8365bd7-attr-7-name" class="er entityLabel">daily_goal_hrs</text><rect height="21" width="24.357086181640625" y="150" x="146.078125" class="er attributeBoxOdd"/><text style="dominant-baseline: middle; font-size: 10.2px;" transform="translate(151.078125,160.5)" y="0" x="0" id="text-entity-JAMMER-534f5297-c3e7-5e9c-8af6-c5b1a8365bd7-attr-7-key" class="er entityLabel"/><rect height="21" width="136.596435546875" y="150" x="170.43521118164062" class="er attributeBoxOdd"/><text style="dominant-baseline: middle; font-size: 10.2px;" transform="translate(175.43521118164062,160.5)" y="0" x="0" id="text-entity-JAMMER-534f5297-c3e7-5e9c-8af6-c5b1a8365bd7-attr-7-comment" class="er entityLabel">NOT NULL; DEFAULT 1</text></g><g transform="translate(20,312 )" id="entity-POMODORO-4b07517c-9484-580e-b96f-c2380dbfb4e1"><rect height="108" width="222.45274353027344" y="0" x="0" class="er entityBox"/><text style="dominant-baseline: middle; text-anchor: middle; font-size: 12px;" transform="translate(111.22637176513672,12)" y="0" x="0" id="text-entity-POMODORO-4b07517c-9484-580e-b96f-c2380dbfb4e1" class="er entityLabel">POMODORO</text><rect height="21" width="55.296875" y="24" x="0" class="er attributeBoxOdd"/><text style="dominant-baseline: middle; font-size: 10.2px;" transform="translate(5,34.5)" y="0" x="0" id="text-entity-POMODORO-4b07517c-9484-580e-b96f-c2380dbfb4e1-attr-1-type" class="er entityLabel">INTEGER</text><rect height="21" width="82.83059692382812" y="24" x="55.296875" class="er attributeBoxOdd"/><text style="dominant-baseline: middle; font-size: 10.2px;" transform="translate(60.296875,34.5)" y="0" x="0" id="text-entity-POMODORO-4b07517c-9484-580e-b96f-c2380dbfb4e1-attr-1-name" class="er entityLabel">pomodoro_id</text><rect height="21" width="23.79498291015625" y="24" x="138.12747192382812" class="er attributeBoxOdd"/><text style="dominant-baseline: middle; font-size: 10.2px;" transform="translate(143.12747192382812,34.5)" y="0" x="0" id="text-entity-POMODORO-4b07517c-9484-580e-b96f-c2380dbfb4e1-attr-1-key" class="er entityLabel">PK</text><rect height="21" width="60.53028869628906" y="24" x="161.92245483398438" class="er attributeBoxOdd"/><text style="dominant-baseline: middle; font-size: 10.2px;" transform="translate(166.92245483398438,34.5)" y="0" x="0" id="text-entity-POMODORO-4b07517c-9484-580e-b96f-c2380dbfb4e1-attr-1-comment" class="er entityLabel">IDENTITY</text><rect height="21" width="55.296875" y="45" x="0" class="er attributeBoxEven"/><text style="dominant-baseline: middle; font-size: 10.2px;" transform="translate(5,55.5)" y="0" x="0" id="text-entity-POMODORO-4b07517c-9484-580e-b96f-c2380dbfb4e1-attr-2-type" class="er entityLabel">INTEGER</text><rect height="21" width="82.83059692382812" y="45" x="55.296875" class="er attributeBoxEven"/><text style="dominant-baseline: middle; font-size: 10.2px;" transform="translate(60.296875,55.5)" y="0" x="0" id="text-entity-POMODORO-4b07517c-9484-580e-b96f-c2380dbfb4e1-attr-2-name" class="er entityLabel">jammer_id</text><rect height="21" width="23.79498291015625" y="45" x="138.12747192382812" class="er attributeBoxEven"/><text style="dominant-baseline: middle; font-size: 10.2px;" transform="translate(143.12747192382812,55.5)" y="0" x="0" id="text-entity-POMODORO-4b07517c-9484-580e-b96f-c2380dbfb4e1-attr-2-key" class="er entityLabel">FK</text><rect height="21" width="60.53028869628906" y="45" x="161.92245483398438" class="er attributeBoxEven"/><text style="dominant-baseline: middle; font-size: 10.2px;" transform="translate(166.92245483398438,55.5)" y="0" x="0" id="text-entity-POMODORO-4b07517c-9484-580e-b96f-c2380dbfb4e1-attr-2-comment" class="er entityLabel">NOT NULL</text><rect height="21" width="55.296875" y="66" x="0" class="er attributeBoxOdd"/><text style="dominant-baseline: middle; font-size: 10.2px;" transform="translate(5,76.5)" y="0" x="0" id="text-entity-POMODORO-4b07517c-9484-580e-b96f-c2380dbfb4e1-attr-3-type" class="er entityLabel">DATE</text><rect height="21" width="82.83059692382812" y="66" x="55.296875" class="er attributeBoxOdd"/><text style="dominant-baseline: middle; font-size: 10.2px;" transform="translate(60.296875,76.5)" y="0" x="0" id="text-entity-POMODORO-4b07517c-9484-580e-b96f-c2380dbfb4e1-attr-3-name" class="er entityLabel">completed_date</text><rect height="21" width="23.79498291015625" y="66" x="138.12747192382812" class="er attributeBoxOdd"/><text style="dominant-baseline: middle; font-size: 10.2px;" transform="translate(143.12747192382812,76.5)" y="0" x="0" id="text-entity-POMODORO-4b07517c-9484-580e-b96f-c2380dbfb4e1-attr-3-key" class="er entityLabel"/><rect height="21" width="60.53028869628906" y="66" x="161.92245483398438" class="er attributeBoxOdd"/><text style="dominant-baseline: middle; font-size: 10.2px;" transform="translate(166.92245483398438,76.5)" y="0" x="0" id="text-entity-POMODORO-4b07517c-9484-580e-b96f-c2380dbfb4e1-attr-3-comment" class="er entityLabel">NOT NULL</text><rect height="21" width="55.296875" y="87" x="0" class="er attributeBoxEven"/><text style="dominant-baseline: middle; font-size: 10.2px;" transform="translate(5,97.5)" y="0" x="0" id="text-entity-POMODORO-4b07517c-9484-580e-b96f-c2380dbfb4e1-attr-4-type" class="er entityLabel">INTEGER</text><rect height="21" width="82.83059692382812" y="87" x="55.296875" class="er attributeBoxEven"/><text style="dominant-baseline: middle; font-size: 10.2px;" transform="translate(60.296875,97.5)" y="0" x="0" id="text-entity-POMODORO-4b07517c-9484-580e-b96f-c2380dbfb4e1-attr-4-name" class="er entityLabel">duration_secs</text><rect height="21" width="23.79498291015625" y="87" x="138.12747192382812" class="er attributeBoxEven"/><text style="dominant-baseline: middle; font-size: 10.2px;" transform="translate(143.12747192382812,97.5)" y="0" x="0" id="text-entity-POMODORO-4b07517c-9484-580e-b96f-c2380dbfb4e1-attr-4-key" class="er entityLabel"/><rect height="21" width="60.53028869628906" y="87" x="161.92245483398438" class="er attributeBoxEven"/><text style="dominant-baseline: middle; font-size: 10.2px;" transform="translate(166.92245483398438,97.5)" y="0" x="0" id="text-entity-POMODORO-4b07517c-9484-580e-b96f-c2380dbfb4e1-attr-4-comment" class="er entityLabel">NOT NULL</text></g><g transform="translate(342.45274353027344,291 )" id="entity-TODO-7adb7c38-975c-5786-a33e-2542903f0e18"><rect height="150" width="303.278564453125" y="0" x="0" class="er entityBox"/><text style="dominant-baseline: middle; text-anchor: middle; font-size: 12px;" transform="translate(151.6392822265625,12)" y="0" x="0" id="text-entity-TODO-7adb7c38-975c-5786-a33e-2542903f0e18" class="er entityLabel">TODO</text><rect height="21" width="59.265625" y="24" x="0" class="er attributeBoxOdd"/><text style="dominant-baseline: middle; font-size: 10.2px;" transform="translate(5,34.5)" y="0" x="0" id="text-entity-TODO-7adb7c38-975c-5786-a33e-2542903f0e18-attr-1-type" class="er entityLabel">INTEGER</text><rect height="21" width="84.765625" y="24" x="59.265625" class="er attributeBoxOdd"/><text style="dominant-baseline: middle; font-size: 10.2px;" transform="translate(64.265625,34.5)" y="0" x="0" id="text-entity-TODO-7adb7c38-975c-5786-a33e-2542903f0e18-attr-1-name" class="er entityLabel">todo_id</text><rect height="21" width="23.79498291015625" y="24" x="144.03125" class="er attributeBoxOdd"/><text style="dominant-baseline: middle; font-size: 10.2px;" transform="translate(149.03125,34.5)" y="0" x="0" id="text-entity-TODO-7adb7c38-975c-5786-a33e-2542903f0e18-attr-1-key" class="er entityLabel">PK</text><rect height="21" width="135.45233154296875" y="24" x="167.82623291015625" class="er attributeBoxOdd"/><text style="dominant-baseline: middle; font-size: 10.2px;" transform="translate(172.82623291015625,34.5)" y="0" x="0" id="text-entity-TODO-7adb7c38-975c-5786-a33e-2542903f0e18-attr-1-comment" class="er entityLabel">IDENTITY</text><rect height="21" width="59.265625" y="45" x="0" class="er attributeBoxEven"/><text style="dominant-baseline: middle; font-size: 10.2px;" transform="translate(5,55.5)" y="0" x="0" id="text-entity-TODO-7adb7c38-975c-5786-a33e-2542903f0e18-attr-2-type" class="er entityLabel">INTEGER</text><rect height="21" width="84.765625" y="45" x="59.265625" class="er attributeBoxEven"/><text style="dominant-baseline: middle; font-size: 10.2px;" transform="translate(64.265625,55.5)" y="0" x="0" id="text-entity-TODO-7adb7c38-975c-5786-a33e-2542903f0e18-attr-2-name" class="er entityLabel">jammer_id</text><rect height="21" width="23.79498291015625" y="45" x="144.03125" class="er attributeBoxEven"/><text style="dominant-baseline: middle; font-size: 10.2px;" transform="translate(149.03125,55.5)" y="0" x="0" id="text-entity-TODO-7adb7c38-975c-5786-a33e-2542903f0e18-attr-2-key" class="er entityLabel">FK</text><rect height="21" width="135.45233154296875" y="45" x="167.82623291015625" class="er attributeBoxEven"/><text style="dominant-baseline: middle; font-size: 10.2px;" transform="translate(172.82623291015625,55.5)" y="0" x="0" id="text-entity-TODO-7adb7c38-975c-5786-a33e-2542903f0e18-attr-2-comment" class="er entityLabel">NOT NULL</text><rect height="21" width="59.265625" y="66" x="0" class="er attributeBoxOdd"/><text style="dominant-baseline: middle; font-size: 10.2px;" transform="translate(5,76.5)" y="0" x="0" id="text-entity-TODO-7adb7c38-975c-5786-a33e-2542903f0e18-attr-3-type" class="er entityLabel">VARCHAR</text><rect height="21" width="84.765625" y="66" x="59.265625" class="er attributeBoxOdd"/><text style="dominant-baseline: middle; font-size: 10.2px;" transform="translate(64.265625,76.5)" y="0" x="0" id="text-entity-TODO-7adb7c38-975c-5786-a33e-2542903f0e18-attr-3-name" class="er entityLabel">todo_description</text><rect height="21" width="23.79498291015625" y="66" x="144.03125" class="er attributeBoxOdd"/><text style="dominant-baseline: middle; font-size: 10.2px;" transform="translate(149.03125,76.5)" y="0" x="0" id="text-entity-TODO-7adb7c38-975c-5786-a33e-2542903f0e18-attr-3-key" class="er entityLabel"/><rect height="21" width="135.45233154296875" y="66" x="167.82623291015625" class="er attributeBoxOdd"/><text style="dominant-baseline: middle; font-size: 10.2px;" transform="translate(172.82623291015625,76.5)" y="0" x="0" id="text-entity-TODO-7adb7c38-975c-5786-a33e-2542903f0e18-attr-3-comment" class="er entityLabel">NOT NULL</text><rect height="21" width="59.265625" y="87" x="0" class="er attributeBoxEven"/><text style="dominant-baseline: middle; font-size: 10.2px;" transform="translate(5,97.5)" y="0" x="0" id="text-entity-TODO-7adb7c38-975c-5786-a33e-2542903f0e18-attr-4-type" class="er entityLabel">INTEGER</text><rect height="21" width="84.765625" y="87" x="59.265625" class="er attributeBoxEven"/><text style="dominant-baseline: middle; font-size: 10.2px;" transform="translate(64.265625,97.5)" y="0" x="0" id="text-entity-TODO-7adb7c38-975c-5786-a33e-2542903f0e18-attr-4-name" class="er entityLabel">list_order</text><rect height="21" width="23.79498291015625" y="87" x="144.03125" class="er attributeBoxEven"/><text style="dominant-baseline: middle; font-size: 10.2px;" transform="translate(149.03125,97.5)" y="0" x="0" id="text-entity-TODO-7adb7c38-975c-5786-a33e-2542903f0e18-attr-4-key" class="er entityLabel"/><rect height="21" width="135.45233154296875" y="87" x="167.82623291015625" class="er attributeBoxEven"/><text style="dominant-baseline: middle; font-size: 10.2px;" transform="translate(172.82623291015625,97.5)" y="0" x="0" id="text-entity-TODO-7adb7c38-975c-5786-a33e-2542903f0e18-attr-4-comment" class="er entityLabel">NOT NULL</text><rect height="21" width="59.265625" y="108" x="0" class="er attributeBoxOdd"/><text style="dominant-baseline: middle; font-size: 10.2px;" transform="translate(5,118.5)" y="0" x="0" id="text-entity-TODO-7adb7c38-975c-5786-a33e-2542903f0e18-attr-5-type" class="er entityLabel">BOOLEAN</text><rect height="21" width="84.765625" y="108" x="59.265625" class="er attributeBoxOdd"/><text style="dominant-baseline: middle; font-size: 10.2px;" transform="translate(64.265625,118.5)" y="0" x="0" id="text-entity-TODO-7adb7c38-975c-5786-a33e-2542903f0e18-attr-5-name" class="er entityLabel">is_complete</text><rect height="21" width="23.79498291015625" y="108" x="144.03125" class="er attributeBoxOdd"/><text style="dominant-baseline: middle; font-size: 10.2px;" transform="translate(149.03125,118.5)" y="0" x="0" id="text-entity-TODO-7adb7c38-975c-5786-a33e-2542903f0e18-attr-5-key" class="er entityLabel"/><rect height="21" width="135.45233154296875" y="108" x="167.82623291015625" class="er attributeBoxOdd"/><text style="dominant-baseline: middle; font-size: 10.2px;" transform="translate(172.82623291015625,118.5)" y="0" x="0" id="text-entity-TODO-7adb7c38-975c-5786-a33e-2542903f0e18-attr-5-comment" class="er entityLabel">NOT NULL; DEFAULT false</text><rect height="21" width="59.265625" y="129" x="0" class="er attributeBoxEven"/><text style="dominant-baseline: middle; font-size: 10.2px;" transform="translate(5,139.5)" y="0" x="0" id="text-entity-TODO-7adb7c38-975c-5786-a33e-2542903f0e18-attr-6-type" class="er entityLabel">DATE</text><rect height="21" width="84.765625" y="129" x="59.265625" class="er attributeBoxEven"/><text style="dominant-baseline: middle; font-size: 10.2px;" transform="translate(64.265625,139.5)" y="0" x="0" id="text-entity-TODO-7adb7c38-975c-5786-a33e-2542903f0e18-attr-6-name" class="er entityLabel">completed_date</text><rect height="21" width="23.79498291015625" y="129" x="144.03125" class="er attributeBoxEven"/><text style="dominant-baseline: middle; font-size: 10.2px;" transform="translate(149.03125,139.5)" y="0" x="0" id="text-entity-TODO-7adb7c38-975c-5786-a33e-2542903f0e18-attr-6-key" class="er entityLabel"/><rect height="21" width="135.45233154296875" y="129" x="167.82623291015625" class="er attributeBoxEven"/><text style="dominant-baseline: middle; font-size: 10.2px;" transform="translate(172.82623291015625,139.5)" y="0" x="0" id="text-entity-TODO-7adb7c38-975c-5786-a33e-2542903f0e18-attr-6-comment" class="er entityLabel">NOT NULL</text></g><rect height="14" width="54.703125" y="233.7809600830078" x="117.23789978027344" class="er relationshipLabelBox"/><text style="text-anchor: middle; dominant-baseline: middle; font-size: 12px;" y="240.7809600830078" x="144.58946228027344" id="rel1" class="er relationshipLabel">completes</text><rect height="14" width="58.046875" y="224.9132843017578" x="446.8106689453125" class="er relationshipLabelBox"/><text style="text-anchor: middle; dominant-baseline: middle; font-size: 12px;" y="231.9132843017578" x="475.8341064453125" id="rel2" class="er relationshipLabel">focuses on</text></svg>